<mxfile host="app.diagrams.net" modified="2023-08-08T14:02:59.565Z" agent="Mozilla/5.0 (Linux; Android 13; SM-X205) AppleWebKit/537.36 (KHTML, like Gecko) Chrome/104.0.0.0 Safari/537.36" version="21.6.6" etag="kvCUjxoOlef39HIFYMWY" type="github">
  <diagram name="Halaman-1" id="sHETppoSoodqaE5EKuRp">
    <mxGraphModel>
      <root>
        <mxCell id="0" />
        <mxCell id="1" parent="0" />
      </root>
    </mxGraphModel>
  </diagram>
</mxfile>
